<svg width="64" height="64" version="1.1" viewBox="0 0 64 64" xmlns="http://www.w3.org/2000/svg">
 <path d="m46.739 32.391-9.0123 4.9051 0.58674-2.9505 5.1633-2.8163-4.1776-2.8633 0.58674-2.9505 7.2756 4.9286zm-22.625 4.9051-7.2756-4.9051 0.42245-1.7468 9.0123-4.9286-0.56327 2.9505-5.1868 2.8633 4.1776 2.8163zm14.632-19.062c-4.2114 0-7.2885 4.6842-9.799 15.112-2.5104 10.427-4.81 11.612-6.0734 11.638-0.67667 0.01381-1.0456-0.96107-0.71705-1.2122 0.2281-0.13864 0.67976-0.49247 0.70632-0.95004 0.02966-0.51099-0.40513-0.80927-0.93131-0.79703-0.54473 0.0127-0.99994 0.58986-1.0339 1.1848-0.0031 0.05482-0.0017 0.10857-0.01283 0.63607-0.01113 0.52749 0.611 1.92 1.9896 1.92 3.9236 0 7.7931-4.51 9.6802-12.343 1.2651-5.2512 3.1875-14.459 6.1404-14.459 0.97806 0 0.92916 0.8773 0.65297 1.1098-0.27618 0.23251-0.58556 0.48163-0.61212 0.93918-0.02967 0.51099 0.14424 1.1179 0.88584 1.1006 0.74292-0.01727 1.2641-0.56811 1.2918-1.3344 0.0023-0.05967-2e-3 -0.11806-0.01221-0.17492-0.02172-1.0411-0.63078-2.3695-2.1553-2.3695z" fill="hsl(0deg, 0%, 86%)"/>
</svg>
