<svg width="64" height="64" version="1.1" viewBox="0 0 64 64" xmlns="http://www.w3.org/2000/svg">
    <path d="m53.433 8.1297-6.9884 6.9604c-3.8566-2.0177-8.5209-3.1971-14.444-3.1971-16.47 1e-6 -23.223 9.2695-29.821 20.107 3.5336 5.9261 7.1335 11.278 12.256 14.971l-6.391 6.3656 2.5237 2.5331 6.9864-6.9591 4.444-4.426 2.3432-2.3332 31.614-31.489zm-21.433 11.103a12.768 12.768 0 0 1 7.6545 2.621l-17.807 17.735a12.768 12.768 0 0 1-2.615-7.5886 12.768 12.768 0 0 1 12.767-12.768zm20.347 0.07327-8.3572 8.3232a12.768 12.768 0 0 1 0.77797 4.3714 12.768 12.768 0 0 1-12.768 12.767 12.768 12.768 0 0 1-4.3921-0.82193l-6.5162 6.4902c3.107 1.0724 6.6877 1.6718 10.908 1.6718 16.47 2e-6 23.223-9.2695 29.821-20.107-2.8599-4.7962-5.7582-9.2224-9.4742-12.695z" fill="hsl(0deg, 0%, 72%)"/>
</svg>